
<svg width="16" height="20" viewBox="0 0 16 19" fill="none" xmlns="http://www.w3.org/2000/svg"><path d="M4.25 15.25H11.75V13.75H4.25V15.25ZM4.25 11.25H11.75V9.75H4.25V11.25ZM2.3077 19C1.80257 19 1.375 18.825 1.025 18.475C0.675 18.125 0.5 17.6974 0.5 17.1923V1.8077C0.5 1.30257 0.675 0.875 1.025 0.525C1.375 0.175 1.80257 0 2.3077 0H10.25L15.5 5.24995V17.1923C15.5 17.6974 15.325 18.125 14.975 18.475C14.625 18.825 14.1974 19 13.6922 19H2.3077ZM9.5 5.99995V1.49998H2.3077C2.23077 1.49998 2.16024 1.53203 2.09612 1.59613C2.03202 1.66024 1.99997 1.73077 1.99997 1.8077V17.1923C1.99997 17.2692 2.03202 17.3397 2.09612 17.4038C2.16024 17.4679 2.23077 17.5 2.3077 17.5H13.6922C13.7692 17.5 13.8397 17.4679 13.9038 17.4038C13.9679 17.3397 14 17.2692 14 17.1923V5.99995H9.5Z" fill="#1A1A1C" /></svg>