<svg width="16" height="20" viewBox="0 0 16 20" fill="none" xmlns="http://www.w3.org/2000/svg"><path d="M4.11035 15.75H11.6103V14.25H4.11035V15.75ZM4.11035 11.75H11.6103V10.25H4.11035V11.75ZM2.16805 19.5C1.66292 19.5 1.23535 19.325 0.885352 18.975C0.535352 18.625 0.360352 18.1974 0.360352 17.6923V2.3077C0.360352 1.80257 0.535352 1.375 0.885352 1.025C1.23535 0.675 1.66292 0.5 2.16805 0.5H10.1104L15.3603 5.74995V17.6923C15.3603 18.1974 15.1853 18.625 14.8353 18.975C14.4853 19.325 14.0577 19.5 13.5526 19.5H2.16805ZM9.36035 6.49995V1.99998H2.16805C2.09112 1.99998 2.02059 2.03203 1.95648 2.09613C1.89238 2.16024 1.86033 2.23077 1.86033 2.3077V17.6923C1.86033 17.7692 1.89238 17.8397 1.95648 17.9038C2.02059 17.9679 2.09112 18 2.16805 18H13.5526C13.6295 18 13.7001 17.9679 13.7642 17.9038C13.8283 17.8397 13.8603 17.7692 13.8603 17.6923V6.49995H9.36035Z" fill="#000082" /></svg>